<?xml version="1.0" encoding="utf-8"?>
<!-- Generator: Adobe Illustrator 21.1.0, SVG Export Plug-In . SVG Version: 6.00 Build 0)  -->
<svg version="1.1" id="Layer_1" xmlns="http://www.w3.org/2000/svg" xmlns:xlink="http://www.w3.org/1999/xlink" x="0px" y="0px"
	 viewBox="0 0 1080 1154.6" style="enable-background:new 0 0 1080 1154.6;" xml:space="preserve">
<style type="text/css">
	.st0{fill:none;stroke:#000000;stroke-width:0.576;stroke-miterlimit:10;}
	.st1{font-family:'MyriadPro-Regular';}
	.st2{font-size:21.6px;}
</style>
<path class="st0" d="M148.7,297.8c-19.4,0-37.6-6.8-51.1-19.1c-13.6-12.4-21.9-29.8-23.6-49.2c-0.9-11.1-0.8-20.1,0.4-28.5
	c2.4-16,8.5-29.4,18.2-40c9.2-10,21.3-17.1,36.2-21.2c3.6-25.2,13.8-45.6,30.3-60.9c18.4-17,41-25.3,69-25.3c5.4,0,11.1,0.3,17,0.9
	c20.3,2.1,37.4,9.6,51.2,22.2c12.8-7.2,25.9-10.9,39.2-10.9c14.5,0,29.1,4.4,43.5,13c21.6,13,32.8,33,33.2,59.7
	c0.6,0.2,1.2,0.3,1.7,0.5c35.8,10,59.2,43.7,58.3,83.9c-0.4,16.6-6.7,33.1-17.7,46.6c-11,13.4-26.1,22.9-42.5,26.8
	c-5.5,1.3-10.9,1.5-15,1.5c-56.6,0-112.3,0-164.1,0L148.7,297.8z"/>
<path class="st0" d="M148.7,276.4c-14.3,0-27-4.7-36.7-13.5c-9.7-8.8-15.5-21-16.7-35.2c-0.8-9.4-0.7-16.9,0.3-23.5
	c3.4-23.2,17-38,40.2-44c10.9-2.8,13.2-9.7,14.1-16.2c2.8-21,10.6-37.1,23.8-49.4C188,81.4,205.8,75,228.2,75
	c4.6,0,9.6,0.3,14.7,0.8c19.3,2,34.2,9.8,45.6,23.8l4.3,5.3l5.5-4c12.4-9,24.9-13.6,37.2-13.6c10.6,0,21.5,3.3,32.5,10
	c17.7,10.6,24.8,27.1,22.4,51.8l-0.6,6.2l6.1,1.4c1.4,0.3,2.7,0.6,4.1,0.9c2.9,0.6,5.6,1.3,8.3,2c12.8,3.6,23.7,11.4,31.3,22.5
	c7.7,11.3,11.6,25.3,11.3,40.3c-0.6,24.5-19.4,47.3-43.8,53c-3.4,0.8-7.2,0.9-10.1,0.9c-56.9,0-113,0-165.2,0L148.7,276.4z"/>
<line class="st0" x1="272.9" y1="276.4" x2="272.9" y2="276.4"/>
<line class="st0" x1="272.9" y1="297.8" x2="272.9" y2="297.8"/>
<path class="st0" d="M391.8,576.7c19.4,0,37.6-6.8,51.1-19.1c13.6-12.4,21.9-29.8,23.6-49.2c0.9-11.1,0.8-20.1-0.4-28.5
	c-2.4-16-8.5-29.4-18.2-40c-9.2-10-21.3-17.1-36.2-21.2c-3.6-25.2-13.8-45.6-30.3-60.9c-18.4-17-41-25.3-69-25.3
	c-5.4,0-11.1,0.3-17,0.9c-20.3,2.1-37.4,9.6-51.2,22.2c-12.8-7.2-25.9-10.9-39.2-10.9c-14.5,0-29.1,4.4-43.5,13
	c-21.6,13-32.8,33-33.2,59.7c-0.6,0.2-1.2,0.3-1.7,0.5c-35.8,10-59.2,43.7-58.3,83.9c0.4,16.6,6.7,33.1,17.7,46.6
	c11,13.4,26.1,22.9,42.5,26.8c5.5,1.3,10.9,1.5,15,1.5c56.6,0,112.3,0,164.1,0L391.8,576.7z"/>
<path class="st0" d="M308.9,564.3c-52.2,0-108.4,0-165.3,0c-3.4,0-7.9-0.1-12.2-1.1c-28.2-6.6-50-33.1-50.7-61.6
	c-0.4-17,4.1-32.7,12.9-45.6c8.8-12.9,21.4-22,36.3-26.1c2.9-0.8,5.7-1.4,8.7-2.1c0.9-0.2,1.7-0.4,2.5-0.6
	c-2.3-27.4,6.5-46.6,26.8-58.8c12.4-7.5,24.9-11.2,37.2-11.2c13.8,0,27.6,4.8,41.1,14.3c12.8-15.1,29.3-23.6,50.5-25.8
	c5.5-0.6,10.7-0.9,15.7-0.9c24.8,0,44.6,7.2,60.6,22c14.8,13.7,23.5,31.6,26.6,54.8c0.7,4.9,1.8,7.2,7.4,8.7
	c26.7,6.9,42.9,24.7,46.8,51.4c1.1,7.4,1.2,15.5,0.4,25.6c-1.4,16.5-8.2,30.7-19.6,41.1c-11.4,10.4-26.2,15.8-42.7,15.8L308.9,564.3
	z"/>
<path class="st0" d="M391.8,555.3c14.3,0,27-4.7,36.7-13.5c9.7-8.8,15.5-21,16.7-35.2c0.8-9.4,0.7-16.9-0.3-23.5
	c-3.4-23.2-17-38-40.2-44c-10.9-2.8-13.2-9.7-14.1-16.2c-2.8-21-10.6-37.1-23.8-49.4c-14.2-13.2-32.1-19.6-54.5-19.6
	c-4.6,0-9.6,0.3-14.7,0.8c-19.3,2-34.2,9.8-45.6,23.8l-4.3,5.3l-5.5-4c-12.4-9-24.9-13.6-37.2-13.6c-10.6,0-21.5,3.3-32.5,10
	c-17.7,10.6-24.8,27.1-22.4,51.8l0.6,6.2l-6.1,1.4c-1.4,0.3-2.7,0.6-4.1,0.9c-2.9,0.6-5.6,1.3-8.3,2c-12.8,3.6-23.7,11.4-31.3,22.5
	c-7.7,11.3-11.6,25.3-11.3,40.3c0.6,24.5,19.4,47.3,43.8,53c3.4,0.8,7.2,0.9,10.1,0.9c56.9,0,113,0,165.2,0L391.8,555.3z"/>
<line class="st0" x1="267.7" y1="555.3" x2="267.7" y2="555.3"/>
<line class="st0" x1="267.7" y1="576.7" x2="267.7" y2="576.7"/>
<ellipse class="st0" cx="267.7" cy="566" rx="5.1" ry="5.1"/>
<circle class="st0" cx="314.6" cy="343.3" r="5.1"/>
<path class="st0" d="M124.9,861.2c-19.4,0-37.6-6.8-51.1-19.1c-13.6-12.4-21.9-29.8-23.6-49.2c-0.9-11.1-0.8-20.1,0.4-28.5
	c2.4-16,8.5-29.4,18.2-40c9.2-10,21.3-17.1,36.2-21.2c3.6-25.2,13.8-45.6,30.3-60.9c18.4-17,41-25.3,69-25.3c5.4,0,11.1,0.3,17,0.9
	c20.3,2.1,37.4,9.6,51.2,22.2c12.8-7.2,25.9-10.9,39.2-10.9c14.5,0,29.1,4.4,43.5,13c21.6,13,32.8,33,33.2,59.7
	c0.6,0.2,1.2,0.3,1.7,0.5c35.8,10,59.2,43.7,58.3,83.9c-0.4,16.6-6.7,33.1-17.7,46.6c-11,13.4-26.1,22.9-42.5,26.8
	c-5.5,1.3-10.9,1.5-15,1.5c-56.6,0-112.3,0-164.1,0L124.9,861.2z"/>
<path class="st0" d="M124.9,848.8c-16.6,0-31.4-5.5-42.7-15.8c-11.4-10.4-18.2-24.6-19.6-41.1c-0.9-10.1-0.7-18.2,0.4-25.6
	c4-26.7,20.2-44.5,46.8-51.4c5.6-1.4,6.7-3.7,7.4-8.7c3.1-23.1,11.8-41,26.6-54.8c16-14.8,35.8-22,60.6-22c4.9,0,10.2,0.3,15.7,0.9
	c21.2,2.2,37.7,10.6,50.5,25.8c13.5-9.5,27.3-14.3,41.1-14.3c12.2,0,24.7,3.8,37.2,11.2c20.3,12.2,29.1,31.4,26.8,58.8
	c0.8,0.2,1.6,0.4,2.4,0.5c3,0.7,5.8,1.3,8.8,2.1c14.9,4.2,27.5,13.2,36.3,26.1c8.8,12.9,13.3,28.7,12.9,45.6
	c-0.7,28.5-22.5,54.9-50.7,61.6c-4.3,1-8.8,1.1-12.2,1.1c-56.9,0-113,0-165.2,0L124.9,848.8z"/>
<path class="st0" d="M124.9,839.8c-14.3,0-27-4.7-36.7-13.5c-9.7-8.8-15.5-21-16.7-35.2c-0.8-9.4-0.7-16.9,0.3-23.5
	c3.4-23.2,17-38,40.2-44c10.9-2.8,13.2-9.7,14.1-16.2c2.8-21,10.6-37.1,23.8-49.4c14.2-13.2,32.1-19.6,54.5-19.6
	c4.6,0,9.6,0.3,14.7,0.8c19.3,2,34.2,9.8,45.6,23.8l4.3,5.3l5.5-4c12.4-9,24.9-13.6,37.2-13.6c10.6,0,21.5,3.3,32.5,10
	c17.7,10.6,24.8,27.1,22.4,51.8l-0.6,6.2l6.1,1.4c1.4,0.3,2.7,0.6,4.1,0.9c2.9,0.6,5.6,1.3,8.3,2c12.8,3.6,23.7,11.4,31.3,22.5
	c7.7,11.3,11.6,25.3,11.3,40.3c-0.6,24.5-19.4,47.3-43.8,53c-3.4,0.8-7.2,0.9-10.1,0.9c-56.9,0-113,0-165.2,0L124.9,839.8z"/>
<line class="st0" x1="249" y1="839.8" x2="249" y2="839.8"/>
<line class="st0" x1="249" y1="861.2" x2="249" y2="861.2"/>
<ellipse class="st0" cx="249" cy="850.5" rx="5.1" ry="5.1"/>
<circle class="st0" cx="202.1" cy="627.7" r="5.1"/>
<path class="st0" d="M610,319.2c-19.4,0-37.6-6.8-51.1-19.1c-13.6-12.4-21.9-29.8-23.6-49.2c-0.9-11.1-0.8-20.1,0.4-28.5
	c2.4-16,8.5-29.4,18.2-40c9.2-10,21.3-17.1,36.2-21.2c3.6-25.2,13.8-45.6,30.3-60.9c18.4-17,41-25.3,69-25.3c5.4,0,11.1,0.3,17,0.9
	c20.3,2.1,37.4,9.6,51.2,22.2c12.8-7.2,25.9-10.9,39.2-10.9c14.5,0,29.1,4.4,43.5,13c21.6,13,32.8,33,33.2,59.7
	c0.6,0.2,1.2,0.3,1.7,0.5c35.8,10,59.2,43.7,58.3,83.9c-0.4,16.6-6.7,33.1-17.7,46.6c-11,13.4-26.1,22.9-42.5,26.8
	c-5.5,1.3-10.9,1.5-15,1.5c-56.6,0-112.3,0-164.1,0L610,319.2z"/>
<path class="st0" d="M610,297.8c-14.3,0-27-4.7-36.7-13.5c-9.7-8.8-15.5-21-16.7-35.2c-0.8-9.4-0.7-16.9,0.3-23.5
	c3.4-23.2,17-38,40.2-44c10.9-2.8,13.2-9.7,14.1-16.2c2.8-21,10.6-37.1,23.8-49.4c14.2-13.2,32.1-19.6,54.5-19.6
	c4.6,0,9.6,0.3,14.7,0.8c19.3,2,34.2,9.8,45.6,23.8l4.3,5.3l5.5-4c12.4-9,24.9-13.6,37.2-13.6c10.6,0,21.5,3.3,32.5,10
	c17.7,10.6,24.8,27.1,22.4,51.8l-0.6,6.2l6.1,1.4c1.4,0.3,2.7,0.6,4.1,0.9c2.9,0.6,5.6,1.3,8.3,2c12.8,3.6,23.7,11.4,31.3,22.5
	c7.7,11.3,11.6,25.3,11.3,40.3c-0.6,24.5-19.4,47.3-43.8,53c-3.4,0.8-7.2,0.9-10.1,0.9c-56.9,0-113,0-165.2,0L610,297.8z"/>
<line class="st0" x1="734.1" y1="297.8" x2="734.1" y2="297.8"/>
<line class="st0" x1="734.1" y1="319.2" x2="734.1" y2="319.2"/>
<ellipse class="st0" cx="734.1" cy="308.5" rx="5.1" ry="5.1"/>
<circle class="st0" cx="687.3" cy="85.8" r="5.1"/>
<path class="st0" d="M604.9,653.8c-16.2,0-30.7-5.4-41.8-15.5c-11.1-10.2-17.8-24-19.1-40.2c-0.8-10-0.7-18,0.3-25.3
	c3.9-26.1,19.7-43.5,45.8-50.2c6.3-1.6,7.7-4.5,8.4-9.8c3.1-22.8,11.6-40.4,26.2-53.9c15.7-14.6,35.2-21.6,59.6-21.6
	c4.9,0,10.1,0.3,15.5,0.8c20.8,2.2,37,10.4,49.6,25.3c0.3,0.3,0.7,0.5,1.1,0.5c0.3,0,0.6-0.1,0.8-0.3c13.2-9.3,26.8-14.1,40.3-14.1
	c12,0,24.2,3.7,36.4,11c19.8,11.9,28.4,30.7,26.1,57.5c-0.1,0.7,0.4,1.3,1.1,1.5l2.4,0.5c3,0.7,5.8,1.3,8.7,2.1
	c14.6,4.1,26.9,12.9,35.5,25.5c8.6,12.6,13,28.1,12.6,44.8c-0.6,27.8-22,53.7-49.6,60.2c-4.2,1-8.5,1.1-11.9,1.1
	c-56.9,0-113,0-165.2,0l0,0L604.9,653.8z"/>
<text transform="matrix(1 0 0 1 640.4207 571.1392)" class="st1 st2">Diffuser &amp; backplate</text>
<text transform="matrix(1 0 0 1 200.9473 177.8423)"><tspan x="0" y="0" class="st1 st2">Top</tspan><tspan x="0" y="25.9" class="st1 st2">layer 1</tspan></text>
<text transform="matrix(1 0 0 1 214.1055 766)" class="st1 st2">layer 2</text>
<text transform="matrix(1 0 0 1 652.2627 243.6313)" class="st1 st2">layer 3</text>
<text transform="matrix(1 0 0 1 185.1577 477.8418)" class="st1 st2">layer 4</text>
</svg>
